<svg width="1124" height="444" viewBox="0 0 1124 444" fill="none" xmlns="http://www.w3.org/2000/svg">
<g clip-path="url(#clip0_249_2635)">
<path d="M200.273 320.648C200.273 338.227 197.799 355.805 192.852 373.383C142.721 388.096 101.445 391.352 69.0234 383.148C55.0911 378.982 46.4323 371.234 43.0469 359.906C30.1562 287.51 28.6589 223.839 38.5547 168.891C43.2422 142.328 54.6354 124.555 72.7344 115.57C109.062 101.117 139.531 96.625 164.141 102.094C185.104 106.911 196.432 123.773 198.125 152.68C198.906 186.794 198.776 213.617 197.734 233.148L130.156 247.992C133.021 197.992 131.784 162.25 126.445 140.766C122.539 128.656 118.893 128.005 115.508 138.812C94.2839 217.068 92.5911 283.148 110.43 337.055C117.852 347.992 147.799 342.523 200.273 320.648ZM286.016 272.602C284.974 297.341 288.359 323.122 296.172 349.945C300.599 355.935 305.156 355.414 309.844 348.383C314.01 311.534 316.615 278.396 317.656 248.969C302.292 250.531 292.917 254.958 289.531 262.25C287.969 263.552 286.797 267.003 286.016 272.602ZM318.047 225.336C318.047 198.643 316.484 175.596 313.359 156.195C309.974 144.737 303.984 141.677 295.391 147.016C282.24 152.875 271.432 178.656 262.969 224.359L221.367 221.82C219.935 185.232 222.604 151.508 229.375 120.648C230.547 114.138 234.779 109.19 242.07 105.805C282.956 97.4714 323.516 98.5781 363.75 109.125C372.604 113.682 378.854 121.169 382.5 131.586C392.005 222.471 391.615 295.909 381.328 351.898C378.073 366.872 372.734 375.661 365.312 378.266C315.443 387.25 277.096 387.576 250.273 379.242C238.945 375.596 231.523 367.133 228.008 353.852C221.107 322.732 218.958 294.867 221.562 270.258C223.516 257.758 232.174 247.927 247.539 240.766C269.414 232.823 292.917 227.68 318.047 225.336ZM418.828 383.344C409.714 234.516 407.891 139.464 413.359 98.1875L502.227 96.2344C506.523 130.479 512.448 174.099 520 227.094C534.714 183.865 545.977 145.844 553.789 113.031C565.247 113.031 586.341 111.599 617.07 108.734C617.331 233.604 616.94 328.07 615.898 392.133C608.216 399.685 587.839 405.284 554.766 408.93C554.635 365.18 554.375 318.37 553.984 268.5L523.711 374.555C514.987 374.685 502.487 372.536 486.211 368.109C478.008 315.635 470.13 266.872 462.578 221.82C461.797 309.451 461.341 365.896 461.211 391.156L418.828 383.344ZM702.422 371.234C714.401 378.135 725.534 382.432 735.82 384.125C763.164 392.979 779.961 388.227 786.211 369.867C808.997 288.227 810.169 214.203 789.727 147.797C780.221 125.271 767.917 117.458 752.812 124.359C734.714 132.302 718.242 143.174 703.398 156.977C702.747 135.492 701.901 111.599 700.859 85.2969C680.417 81.3906 661.211 81.0651 643.242 84.3203C636.211 199.815 634.648 299.229 638.555 382.562L702.031 383.539C702.161 379.372 702.292 375.271 702.422 371.234ZM704.18 191.938C720.586 178.266 730.352 178.135 733.477 191.547C738.685 240.245 736.536 283.799 727.031 322.211C722.474 334.841 714.661 338.031 703.594 331.781C704.766 284.125 704.961 237.51 704.18 191.938ZM831.133 181.977C831.523 231.456 831.328 295.193 830.547 373.188C853.724 376.443 877.357 375.531 901.445 370.453C900.794 315.245 900.729 252.354 901.25 181.781C878.333 179.047 854.961 179.112 831.133 181.977ZM822.344 74.9453C818.828 99.8151 818.568 128.656 821.562 161.469C851.51 162.771 882.174 162.771 913.555 161.469C916.419 135.427 916.094 106.586 912.578 74.9453C884.844 69.6068 854.766 69.6068 822.344 74.9453ZM940.508 352.875C924.232 273.057 922.148 196.169 934.258 122.211C935.169 115.44 939.076 110.297 945.977 106.781C995.065 91.9375 1035.95 89.724 1068.63 100.141C1077.1 104.958 1083.09 112.576 1086.6 122.992C1095.46 217.133 1095.2 289.984 1085.82 341.547C1082.7 357.042 1077.62 366.156 1070.59 368.891C1030.22 386.599 993.828 389.984 961.406 379.047C950.729 375.271 943.763 366.547 940.508 352.875ZM1004.96 117.133C985.69 201.117 985.625 278.331 1004.77 348.773C1008.93 354.893 1013.23 354.372 1017.66 347.211C1031.07 254.242 1030.48 178.591 1015.9 120.258C1011.73 109.711 1008.09 108.669 1004.96 117.133Z" fill="#FF7A00"/>
<path d="M200.273 320.648H202.773V316.898L199.311 318.341L200.273 320.648ZM192.852 373.383L193.556 375.782L194.883 375.392L195.258 374.06L192.852 373.383ZM69.0234 383.148L68.3071 385.544L68.3584 385.559L68.4102 385.572L69.0234 383.148ZM43.0469 359.906L40.5856 360.345L40.6106 360.485L40.6516 360.622L43.0469 359.906ZM38.5547 168.891L41.0151 169.334L41.0166 169.325L38.5547 168.891ZM72.7344 115.57L71.8102 113.247L71.7148 113.285L71.6228 113.331L72.7344 115.57ZM164.141 102.094L164.701 99.6573L164.692 99.6552L164.683 99.6533L164.141 102.094ZM198.125 152.68L200.624 152.622L200.623 152.578L200.621 152.534L198.125 152.68ZM197.734 233.148L198.271 235.59L200.129 235.182L200.231 233.282L197.734 233.148ZM130.156 247.992L127.66 247.849L127.472 251.141L130.693 250.434L130.156 247.992ZM126.445 140.766L128.872 140.163L128.851 140.08L128.825 139.998L126.445 140.766ZM115.508 138.812L113.122 138.065L113.108 138.111L113.095 138.158L115.508 138.812ZM110.43 337.055L108.056 337.84L108.166 338.17L108.361 338.458L110.43 337.055ZM197.773 320.648C197.773 337.989 195.333 355.339 190.445 372.705L195.258 374.06C200.266 356.27 202.773 338.464 202.773 320.648H197.773ZM192.147 370.984C142.226 385.636 101.447 388.773 69.6366 380.725L68.4102 385.572C101.444 393.93 143.217 390.556 193.556 375.782L192.147 370.984ZM69.7398 380.753C56.4022 376.764 48.5293 369.52 45.4422 359.19L40.6516 360.622C44.3353 372.948 53.7801 381.199 68.3071 385.544L69.7398 380.753ZM45.5082 359.468C32.6539 287.276 31.1855 223.914 41.0151 169.334L36.0943 168.448C26.1323 223.763 27.6586 287.744 40.5856 360.345L45.5082 359.468ZM41.0166 169.325C45.6164 143.26 56.6825 126.33 73.846 117.81L71.6228 113.331C52.5883 122.78 40.868 141.396 36.0927 168.456L41.0166 169.325ZM73.6585 117.893C109.759 103.531 139.68 99.219 163.598 104.534L164.683 99.6533C139.383 94.031 108.366 98.7037 71.8102 113.247L73.6585 117.893ZM163.581 104.53C173.483 106.806 180.997 111.877 186.284 119.748C191.615 127.683 194.799 138.639 195.629 152.826L200.621 152.534C199.759 137.814 196.432 125.886 190.435 116.959C184.394 107.968 175.761 102.199 164.701 99.6573L163.581 104.53ZM195.626 152.737C196.406 186.827 196.275 213.577 195.238 233.015L200.231 233.282C201.277 213.657 201.406 186.761 200.624 152.622L195.626 152.737ZM197.198 230.707L129.62 245.55L130.693 250.434L198.271 235.59L197.198 230.707ZM132.652 248.135C135.518 198.12 134.309 162.045 128.872 140.163L124.019 141.369C129.259 162.455 130.524 197.865 127.66 247.849L132.652 248.135ZM128.825 139.998C127.825 136.901 126.798 134.387 125.716 132.559C124.731 130.894 123.304 129.106 121.221 128.734C118.804 128.303 117.074 129.94 116.04 131.432C114.945 133.015 113.992 135.288 113.122 138.065L117.894 139.56C118.716 136.934 119.489 135.235 120.151 134.278C120.876 133.232 120.936 133.762 120.342 133.656C120.082 133.61 120.51 133.58 121.413 135.105C122.219 136.467 123.112 138.576 124.066 141.533L128.825 139.998ZM113.095 138.158C91.7951 216.693 90.0108 283.309 108.056 337.84L112.803 336.269C95.1715 282.988 96.7726 217.442 117.921 139.467L113.095 138.158ZM108.361 338.458C110.755 341.986 114.796 343.915 119.858 344.655C124.912 345.395 131.294 345.006 138.906 343.616C154.147 340.832 174.949 333.914 201.235 322.956L199.311 318.341C173.124 329.258 152.715 336.011 138.008 338.697C130.646 340.041 124.87 340.336 120.582 339.708C116.301 339.081 113.816 337.592 112.498 335.651L108.361 338.458ZM286.016 272.602L283.54 272.256L283.523 272.376L283.518 272.496L286.016 272.602ZM296.172 349.945L293.772 350.644L293.896 351.073L294.161 351.431L296.172 349.945ZM309.844 348.383L311.924 349.77L312.26 349.266L312.328 348.664L309.844 348.383ZM317.656 248.969L320.155 249.057L320.256 246.191L317.403 246.482L317.656 248.969ZM289.531 262.25L291.132 264.171L291.563 263.811L291.799 263.303L289.531 262.25ZM318.047 225.336L318.279 227.825L320.547 227.614V225.336H318.047ZM313.359 156.195L315.828 155.798L315.802 155.64L315.757 155.487L313.359 156.195ZM295.391 147.016L296.408 149.299L296.564 149.23L296.71 149.139L295.391 147.016ZM262.969 224.359L262.816 226.855L265.024 226.989L265.427 224.815L262.969 224.359ZM221.367 221.82L218.869 221.918L218.958 224.178L221.215 224.316L221.367 221.82ZM229.375 120.648L231.817 121.184L231.827 121.138L231.835 121.091L229.375 120.648ZM242.07 105.805L241.571 103.355L241.284 103.414L241.018 103.537L242.07 105.805ZM363.75 109.125L364.894 106.902L364.65 106.776L364.384 106.707L363.75 109.125ZM382.5 131.586L384.986 131.326L384.956 131.036L384.86 130.76L382.5 131.586ZM381.328 351.898L383.771 352.43L383.78 352.39L383.787 352.35L381.328 351.898ZM365.312 378.266L365.756 380.726L365.952 380.691L366.14 380.625L365.312 378.266ZM250.273 379.242L249.508 381.622L249.52 381.626L249.532 381.63L250.273 379.242ZM228.008 353.852L225.567 354.393L225.578 354.442L225.591 354.491L228.008 353.852ZM221.562 270.258L219.092 269.872L219.083 269.933L219.076 269.995L221.562 270.258ZM247.539 240.766L246.686 238.416L246.583 238.453L246.483 238.5L247.539 240.766ZM283.518 272.496C282.463 297.54 285.893 323.594 293.772 350.644L298.572 349.246C290.826 322.651 287.485 297.142 288.513 272.707L283.518 272.496ZM294.161 351.431C296.558 354.674 299.568 356.945 303.194 356.531C306.628 356.138 309.491 353.419 311.924 349.77L307.764 346.996C305.509 350.378 303.75 351.435 302.626 351.563C301.695 351.669 300.213 351.207 298.182 348.459L294.161 351.431ZM312.328 348.664C316.5 311.766 319.11 278.563 320.155 249.057L315.158 248.88C314.119 278.229 311.521 311.301 307.36 348.102L312.328 348.664ZM317.403 246.482C301.941 248.054 291.261 252.587 287.264 261.197L291.799 263.303C294.572 257.329 302.643 253.008 317.909 251.456L317.403 246.482ZM287.931 260.329C286.614 261.426 285.746 263.147 285.113 265.01C284.457 266.943 283.941 269.376 283.54 272.256L288.492 272.947C288.871 270.228 289.332 268.137 289.848 266.618C290.387 265.031 290.886 264.376 291.132 264.171L287.931 260.329ZM320.547 225.336C320.547 198.554 318.98 175.367 315.828 155.798L310.891 156.593C313.989 175.825 315.547 198.733 315.547 225.336H320.547ZM315.757 155.487C314.01 149.573 311.402 145.091 307.465 143.08C303.344 140.975 298.708 142.012 294.071 144.892L296.71 149.139C300.667 146.681 303.323 146.579 305.191 147.533C307.244 148.582 309.324 151.359 310.962 156.904L315.757 155.487ZM294.373 144.732C286.87 148.075 280.564 156.785 275.116 169.78C269.613 182.907 264.756 200.976 260.511 223.904L265.427 224.815C269.645 202.039 274.423 184.366 279.727 171.713C285.087 158.926 290.76 151.815 296.408 149.299L294.373 144.732ZM263.121 221.864L221.519 219.325L221.215 224.316L262.816 226.855L263.121 221.864ZM223.865 221.723C222.44 185.314 225.098 151.806 231.817 121.184L226.933 120.113C220.11 151.21 217.43 185.15 218.869 221.918L223.865 221.723ZM231.835 121.091C232.831 115.559 236.39 111.198 243.123 108.072L241.018 103.537C233.168 107.182 228.263 112.717 226.915 120.206L231.835 121.091ZM242.57 108.254C283.081 99.9972 323.253 101.094 363.116 111.543L364.384 106.707C323.778 96.0624 282.83 94.9455 241.571 103.355L242.57 108.254ZM362.606 111.348C370.827 115.579 376.681 122.528 380.14 132.412L384.86 130.76C381.027 119.81 374.381 111.785 364.894 106.902L362.606 111.348ZM380.014 131.846C389.507 222.619 389.095 295.79 378.869 351.447L383.787 352.35C394.135 296.028 394.503 222.324 384.986 131.326L380.014 131.846ZM378.885 351.367C375.648 366.258 370.552 373.778 364.485 375.907L366.14 380.625C374.917 377.545 380.498 367.486 383.771 352.43L378.885 351.367ZM364.869 375.805C315.125 384.767 277.258 385.008 251.015 376.855L249.532 381.63C276.934 390.143 315.761 389.733 365.756 380.726L364.869 375.805ZM251.039 376.862C240.659 373.521 233.762 365.819 230.425 353.212L225.591 354.491C229.285 368.447 237.232 377.671 249.508 381.622L251.039 376.862ZM230.449 353.31C223.59 322.382 221.48 294.797 224.049 270.521L219.076 269.995C216.437 294.938 218.624 323.081 225.567 354.393L230.449 353.31ZM224.033 270.644C225.815 259.234 233.702 249.973 248.595 243.032L246.483 238.5C230.647 245.881 221.216 256.281 219.092 269.872L224.033 270.644ZM248.392 243.116C270.051 235.251 293.343 230.151 318.279 227.825L317.815 222.847C292.49 225.209 268.777 230.394 246.686 238.416L248.392 243.116ZM418.828 383.344L416.333 383.497L416.452 385.448L418.375 385.802L418.828 383.344ZM413.359 98.1875L413.304 95.6881L411.162 95.7352L410.881 97.8591L413.359 98.1875ZM502.227 96.2344L504.707 95.9231L504.426 93.6854L502.172 93.735L502.227 96.2344ZM520 227.094L517.525 227.446L522.367 227.899L520 227.094ZM553.789 113.031V110.531H551.814L551.357 112.452L553.789 113.031ZM617.07 108.734L619.57 108.729L619.565 105.991L616.838 106.245L617.07 108.734ZM615.898 392.133L617.651 393.916L618.381 393.198L618.398 392.173L615.898 392.133ZM554.766 408.93L552.266 408.937L552.274 411.72L555.04 411.415L554.766 408.93ZM553.984 268.5L556.484 268.48L551.58 267.814L553.984 268.5ZM523.711 374.555L523.748 377.054L525.605 377.027L526.115 375.241L523.711 374.555ZM486.211 368.109L483.741 368.496L483.991 370.096L485.555 370.522L486.211 368.109ZM462.578 221.82L465.044 221.407L460.078 221.798L462.578 221.82ZM461.211 391.156L460.758 393.615L463.695 394.156L463.711 391.169L461.211 391.156ZM421.323 383.191C412.204 234.29 410.407 139.503 415.838 98.5159L410.881 97.8591C405.374 139.424 407.223 234.741 416.333 383.497L421.323 383.191ZM413.414 100.687L502.281 98.7338L502.172 93.735L413.304 95.6881L413.414 100.687ZM499.746 96.5456C504.045 130.81 509.972 174.444 517.525 227.446L522.475 226.741C514.924 173.753 509.002 130.149 504.707 95.9231L499.746 96.5456ZM522.367 227.899C537.097 184.62 548.385 146.521 556.221 113.61L551.357 112.452C543.568 145.167 532.33 183.109 517.633 226.288L522.367 227.899ZM553.789 115.531C565.38 115.531 586.583 114.087 617.302 111.224L616.838 106.245C586.099 109.111 565.115 110.531 553.789 110.531V115.531ZM614.57 108.74C614.831 233.606 614.44 328.053 613.399 392.092L618.398 392.173C619.44 328.087 619.831 233.603 619.57 108.729L614.57 108.74ZM614.146 390.35C610.782 393.657 604.294 396.81 594.191 399.585C584.18 402.336 570.962 404.629 554.492 406.445L555.04 411.415C571.642 409.584 585.149 407.255 595.516 404.407C605.791 401.584 613.333 398.161 617.651 393.916L614.146 390.35ZM557.266 408.922C557.135 365.168 556.875 318.354 556.484 268.48L551.484 268.52C551.875 318.386 552.135 365.192 552.266 408.937L557.266 408.922ZM551.58 267.814L521.307 373.868L526.115 375.241L556.388 269.186L551.58 267.814ZM523.674 372.055C515.311 372.18 503.086 370.109 486.867 365.697L485.555 370.522C501.888 374.964 514.663 377.19 523.748 377.054L523.674 372.055ZM488.681 367.723C480.477 315.242 472.598 266.469 465.044 221.407L460.113 222.234C467.663 267.275 475.539 316.029 483.741 368.496L488.681 367.723ZM460.078 221.798C459.297 309.427 458.841 365.877 458.711 391.143L463.711 391.169C463.841 365.914 464.297 309.474 465.078 221.843L460.078 221.798ZM461.664 388.698L419.281 380.885L418.375 385.802L460.758 393.615L461.664 388.698ZM702.422 371.234L703.67 369.068L700.058 366.987L699.923 371.154L702.422 371.234ZM735.82 384.125L736.59 381.747L736.412 381.689L736.226 381.658L735.82 384.125ZM786.211 369.867L788.578 370.673L788.6 370.607L788.619 370.539L786.211 369.867ZM789.727 147.797L792.116 147.061L792.079 146.941L792.03 146.825L789.727 147.797ZM752.812 124.359L753.817 126.649L753.834 126.641L753.851 126.633L752.812 124.359ZM703.398 156.977L700.9 157.052L701.066 162.559L705.101 158.807L703.398 156.977ZM700.859 85.2969L703.357 85.1979L703.279 83.214L701.329 82.8413L700.859 85.2969ZM643.242 84.3203L642.797 81.8604L640.866 82.2101L640.747 84.1684L643.242 84.3203ZM638.555 382.562L636.057 382.68L636.167 385.026L638.516 385.062L638.555 382.562ZM702.031 383.539L701.993 386.039L704.453 386.077L704.53 383.617L702.031 383.539ZM704.18 191.938L702.579 190.017L701.66 190.783L701.68 191.98L704.18 191.938ZM733.477 191.547L735.962 191.281L735.946 191.129L735.911 190.98L733.477 191.547ZM727.031 322.211L729.383 323.059L729.427 322.937L729.458 322.811L727.031 322.211ZM703.594 331.781L701.094 331.72L701.058 333.22L702.364 333.958L703.594 331.781ZM701.174 373.401C713.333 380.406 724.752 384.837 735.414 386.592L736.226 381.658C726.315 380.027 715.469 375.865 703.67 369.068L701.174 373.401ZM735.05 386.503C748.918 390.994 760.515 392.179 769.606 389.607C778.893 386.979 785.222 380.53 788.578 370.673L783.844 369.062C780.95 377.564 775.755 382.671 768.245 384.796C760.54 386.976 750.067 386.11 736.59 381.747L735.05 386.503ZM788.619 370.539C811.506 288.539 812.728 214.017 792.116 147.061L787.337 148.532C807.611 214.389 806.489 287.914 783.803 369.195L788.619 370.539ZM792.03 146.825C787.2 135.379 781.494 127.24 774.709 122.932C767.733 118.503 759.969 118.341 751.774 122.085L753.851 126.633C760.76 123.477 766.7 123.77 772.029 127.154C777.549 130.658 782.748 137.689 787.423 148.769L792.03 146.825ZM751.808 122.07C733.446 130.128 716.74 141.158 701.696 155.146L705.101 158.807C719.745 145.191 735.981 134.476 753.817 126.649L751.808 122.07ZM705.897 156.901C705.246 135.407 704.399 111.506 703.357 85.1979L698.361 85.3958C699.403 111.692 700.249 135.577 700.9 157.052L705.897 156.901ZM701.329 82.8413C680.626 78.8853 661.107 78.5432 642.797 81.8604L643.688 86.7803C661.315 83.587 680.208 83.8959 700.39 87.7524L701.329 82.8413ZM640.747 84.1684C633.712 199.721 632.146 299.23 636.057 382.68L641.052 382.445C637.151 299.228 638.71 199.909 645.738 84.4722L640.747 84.1684ZM638.516 385.062L701.993 386.039L702.07 381.039L638.593 380.063L638.516 385.062ZM704.53 383.617C704.66 379.451 704.79 375.351 704.921 371.315L699.923 371.154C699.793 375.191 699.663 379.293 699.532 383.461L704.53 383.617ZM705.78 193.858C709.801 190.507 713.34 188.051 716.405 186.434C719.492 184.806 721.947 184.111 723.842 184.086C725.638 184.062 726.99 184.632 728.094 185.769C729.271 186.981 730.317 189.002 731.042 192.114L735.911 190.98C735.074 187.386 733.727 184.394 731.682 182.286C729.562 180.103 726.862 179.045 723.775 179.086C720.787 179.126 717.53 180.188 714.073 182.011C710.596 183.845 706.761 186.532 702.579 190.017L705.78 193.858ZM730.991 191.813C736.175 240.287 734.025 283.54 724.604 321.61L729.458 322.811C739.048 284.059 741.195 240.203 735.962 191.281L730.991 191.813ZM724.68 321.362C722.502 327.398 719.758 330.558 716.809 331.762C713.91 332.945 710.037 332.549 704.823 329.604L702.364 333.958C708.219 337.264 713.785 338.397 718.699 336.391C723.563 334.405 727.003 329.655 729.383 323.059L724.68 321.362ZM706.093 331.843C707.266 284.153 707.461 237.504 706.679 191.895L701.68 191.98C702.461 237.517 702.266 284.097 701.094 331.72L706.093 331.843ZM831.133 181.977L830.834 179.494L828.615 179.761L828.633 181.996L831.133 181.977ZM830.547 373.188L828.047 373.162L828.025 375.358L830.199 375.663L830.547 373.188ZM901.445 370.453L901.961 372.899L903.969 372.476L903.945 370.424L901.445 370.453ZM901.25 181.781L903.75 181.8L903.766 179.564L901.546 179.299L901.25 181.781ZM822.344 74.9453L821.938 72.4785L820.125 72.7769L819.868 74.5954L822.344 74.9453ZM821.562 161.469L819.073 161.696L819.271 163.872L821.454 163.966L821.562 161.469ZM913.555 161.469L913.658 163.967L915.805 163.878L916.04 161.742L913.555 161.469ZM912.578 74.9453L915.063 74.6692L914.859 72.8385L913.051 72.4904L912.578 74.9453ZM828.633 181.996C829.023 231.455 828.828 295.175 828.047 373.162L833.047 373.213C833.828 295.21 834.023 231.457 833.633 181.957L828.633 181.996ZM830.199 375.663C853.678 378.961 877.603 378.034 901.961 372.899L900.93 368.007C877.11 373.028 853.77 373.925 830.895 370.712L830.199 375.663ZM903.945 370.424C903.294 315.235 903.229 252.361 903.75 181.8L898.75 181.763C898.229 252.348 898.294 315.255 898.945 370.483L903.945 370.424ZM901.546 179.299C878.424 176.54 854.852 176.607 830.834 179.494L831.431 184.459C855.07 181.617 878.242 181.554 900.954 184.264L901.546 179.299ZM819.868 74.5954C816.319 99.7049 816.066 128.747 819.073 161.696L824.052 161.242C821.07 128.565 821.337 99.9253 824.819 75.2952L819.868 74.5954ZM821.454 163.966C851.476 165.272 882.211 165.271 913.658 163.967L913.451 158.971C882.138 160.27 851.545 160.27 821.671 158.971L821.454 163.966ZM916.04 161.742C918.928 135.484 918.595 106.455 915.063 74.6692L910.093 75.2214C913.593 106.717 913.91 135.37 911.07 161.195L916.04 161.742ZM913.051 72.4904C884.983 67.0877 854.604 67.0997 821.938 72.4785L822.75 77.4121C854.927 72.1138 884.704 72.1258 912.106 77.4002L913.051 72.4904ZM940.508 352.875L938.058 353.375L938.066 353.414L938.076 353.454L940.508 352.875ZM934.258 122.211L936.725 122.615L936.731 122.58L936.735 122.544L934.258 122.211ZM945.977 106.781L945.253 104.388L945.04 104.453L944.842 104.554L945.977 106.781ZM1068.63 100.141L1069.87 97.968L1069.64 97.8383L1069.39 97.7587L1068.63 100.141ZM1086.6 122.992L1089.09 122.758L1089.06 122.468L1088.97 122.193L1086.6 122.992ZM1085.82 341.547L1088.27 342.041L1088.28 342.018L1088.28 341.994L1085.82 341.547ZM1070.59 368.891L1069.68 366.561L1069.63 366.58L1069.58 366.601L1070.59 368.891ZM961.406 379.047L960.573 381.404L960.59 381.41L960.607 381.416L961.406 379.047ZM1004.96 117.133L1002.62 116.267L1002.56 116.417L1002.52 116.574L1004.96 117.133ZM1004.77 348.773L1002.35 349.429L1002.46 349.834L1002.7 350.18L1004.77 348.773ZM1017.66 347.211L1019.78 348.525L1020.06 348.083L1020.13 347.568L1017.66 347.211ZM1015.9 120.258L1018.32 119.651L1018.28 119.492L1018.22 119.339L1015.9 120.258ZM942.957 352.375C926.737 272.829 924.669 196.248 936.725 122.615L931.791 121.807C919.628 196.09 921.727 273.285 938.058 353.375L942.957 352.375ZM936.735 122.544C937.521 116.706 940.828 112.21 947.111 109.009L944.842 104.554C937.323 108.384 932.817 114.174 931.78 121.877L936.735 122.544ZM946.7 109.174C995.531 94.4086 1035.86 92.3182 1067.87 102.523L1069.39 97.7587C1036.04 87.1297 994.6 89.4664 945.253 104.388L946.7 109.174ZM1067.4 102.313C1075.26 106.788 1080.89 113.876 1084.23 123.792L1088.97 122.193C1085.29 111.275 1078.94 103.129 1069.87 97.968L1067.4 102.313ZM1084.11 123.226C1092.96 217.291 1092.67 289.874 1083.36 341.1L1088.28 341.994C1097.72 290.095 1097.95 216.975 1089.09 122.758L1084.11 123.226ZM1083.37 341.053C1081.83 348.663 1079.85 354.54 1077.48 358.787C1075.12 363.029 1072.48 365.473 1069.68 366.561L1071.49 371.221C1075.73 369.574 1079.14 366.093 1081.85 361.221C1084.56 356.353 1086.68 349.925 1088.27 342.041L1083.37 341.053ZM1069.58 366.601C1029.62 384.134 993.883 387.364 962.205 376.678L960.607 381.416C993.774 392.604 1030.82 389.064 1071.59 371.18L1069.58 366.601ZM962.24 376.69C952.561 373.267 946.053 365.37 942.94 352.296L938.076 353.454C941.473 367.724 948.898 377.275 960.573 381.404L962.24 376.69ZM1002.52 116.574C983.178 200.887 983.087 278.524 1002.35 349.429L1007.18 348.118C988.163 278.138 988.202 201.348 1007.4 117.692L1002.52 116.574ZM1002.7 350.18C1004.92 353.439 1007.81 355.892 1011.41 355.454C1014.79 355.046 1017.51 352.196 1019.78 348.525L1015.53 345.896C1013.37 349.387 1011.74 350.379 1010.81 350.491C1010.12 350.574 1008.78 350.228 1006.83 347.366L1002.7 350.18ZM1020.13 347.568C1033.57 254.439 1033.02 178.426 1018.32 119.651L1013.47 120.864C1027.95 178.756 1028.57 254.046 1015.18 346.854L1020.13 347.568ZM1018.22 119.339C1017.15 116.624 1016.06 114.394 1014.94 112.732C1013.88 111.159 1012.52 109.674 1010.73 109.163C1008.6 108.555 1006.8 109.521 1005.56 110.882C1004.38 112.168 1003.43 114.051 1002.62 116.267L1007.31 117.999C1008.05 115.983 1008.73 114.822 1009.25 114.252C1009.7 113.758 1009.66 114.057 1009.35 113.97C1009.34 113.966 1009.47 114.002 1009.75 114.256C1010.03 114.508 1010.38 114.913 1010.8 115.527C1011.63 116.763 1012.56 118.618 1013.57 121.176L1018.22 119.339Z" fill="#FF7A00"/>
<path d="M902 146.5H833" stroke="#19141E" stroke-width="7"/>
<path d="M888.383 14.4229C888.383 14.4229 870.921 25.9719 869 45.9529" stroke="black" stroke-width="5" stroke-linecap="round"/>
<path d="M879.497 12.538C879.497 18.358 884.215 23.077 890.035 23.077C895.855 23.077 900.574 18.358 900.574 12.538C900.574 6.718 895.855 2 890.035 2C884.215 2 879.497 6.718 879.497 12.538Z" fill="#FF7A00"/>
<path d="M848.191 14.4229C848.191 14.4229 865.653 25.9719 867.574 45.9529" stroke="black" stroke-width="5" stroke-linecap="round"/>
<path d="M857.077 12.538C857.077 18.358 852.359 23.077 846.539 23.077C840.719 23.077 836 18.358 836 12.538C836 6.718 840.719 2 846.539 2C852.359 2 857.077 6.718 857.077 12.538Z" fill="#FF7A00"/>
<circle cx="868" cy="109" r="18" fill="white"/>
<circle cx="868" cy="109" r="6" fill="black"/>
<path fill-rule="evenodd" clip-rule="evenodd" d="M838.382 42.3958C823.225 44.0568 800.024 47.6668 797.33 48.7838C795.513 49.5378 795.026 51.5638 793.071 66.4968C791.857 75.7708 790.583 87.0188 790.239 91.4918L789.614 99.6238L784.95 97.2038C770.907 89.9188 755.611 90.1288 738.418 97.8428C733.77 99.9278 731.689 100.447 731.425 99.5848C731.218 98.9108 730.779 89.8388 730.448 79.4248C730.117 69.0108 729.741 60.3848 729.613 60.2568C729.484 60.1278 722.078 58.6498 713.154 56.9708C690.595 52.7278 676.907 51.4958 660.882 52.2668C648.099 52.8828 616.723 57.6838 615.14 59.2678C614.735 59.6728 614.173 64.1258 613.893 69.1618L613.382 78.3198L608.882 79.0408C599.592 80.5308 561.616 82.8588 546.615 82.8588H531.041L530.502 80.1088C530.205 78.5968 529.668 74.7708 529.307 71.6088L528.652 65.8588L514.017 65.9078C488.112 65.9938 387.871 68.5368 387.285 69.1228C386.973 69.4348 386.254 73.2148 385.686 77.5238C385.119 81.8328 384.532 85.4948 384.383 85.6608C384.233 85.8278 381.472 84.6118 378.246 82.9598C374.948 81.2698 367.351 78.8548 360.882 77.4398C326.317 69.8788 292.992 68.2267 259.882 72.4307C233.318 75.8047 224.853 78.8788 214.344 88.9698L208.235 94.8368L205.309 91.7328C200.227 86.3438 188.926 79.0208 181.014 75.9888C159.937 67.9118 128.345 67.8598 97.4488 75.8498C81.8808 79.8768 62.3458 86.8648 54.7918 91.1098C37.9608 100.568 23.6728 117.861 15.7548 138.359C5.12475 165.876 -0.294246 224.909 2.92175 278.148C5.01275 312.771 11.7438 362.07 15.8928 373.16C22.5948 391.073 39.9588 405.994 60.8358 411.779C88.1868 419.358 125.787 419.022 165.919 410.838C184.232 407.104 216.085 398.166 217.3 396.422C218.019 395.388 219.207 395.807 222.8 398.364C237.895 409.105 256.943 413.704 289.938 414.575C312.593 415.173 328.154 414.141 353.639 410.351C373.8 407.352 376.006 406.759 383.273 402.382C386.491 400.445 389.295 398.859 389.503 398.859C389.712 398.859 389.882 401.013 389.882 403.646V408.433L437.632 417.233C463.894 422.074 486.619 426.272 488.132 426.563L490.882 427.092V413.653V400.214L501.132 402.011C506.77 403 514.42 404.08 518.132 404.413L524.882 405.018V423.439C524.882 441.245 524.949 441.859 526.899 441.859C528.009 441.859 539.096 440.721 551.538 439.331C596.744 434.278 619.042 427.999 633.55 416.238L637.719 412.859L663.05 412.959C703.419 413.118 733.4 414.393 741.382 416.292C745.628 417.302 752.512 417.952 758.882 417.944C775.281 417.924 785.959 414.318 797.735 404.824L804.088 399.701L819.235 401.869C838.907 404.685 863.125 405.495 879.586 403.886C886.624 403.198 900.898 400.905 911.306 398.79L930.23 394.944L934.934 398.397C949.265 408.917 972.957 414.859 1000.58 414.859C1022.28 414.859 1045.65 410.464 1067.62 402.251C1084.96 395.772 1089.9 393.019 1096.89 385.944C1110.46 372.207 1115.81 354.312 1120.57 306.859C1122.79 284.707 1123.07 208.738 1121.05 178.859C1117.91 132.457 1116.2 116.703 1113.54 109.662C1108.55 96.4468 1098.82 84.2948 1086.87 76.3498C1075.21 68.6028 1051.39 63.8528 1024.25 63.8668C1000.98 63.8787 983.258 66.1688 957.487 72.4928C949.845 74.3678 943.418 75.7288 943.206 75.5158C942.994 75.3038 942.171 69.5908 941.378 62.8208C940.584 56.0508 939.586 50.1888 939.158 49.7938C937.967 48.6928 905.684 43.0338 894.026 41.8818C880.238 40.5198 853.23 40.7698 838.382 42.3958ZM903.2 73.2518C908.05 74.0268 912.173 74.8188 912.361 75.0098C912.55 75.2018 913.252 82.3988 913.921 91.0037C915.595 112.544 914.86 159.628 912.828 160.913C912.012 161.43 892.417 161.835 867.823 161.844C832.931 161.856 823.899 161.592 822.428 160.516C820.74 159.282 820.552 156.828 820.099 130.139C819.779 111.326 820.031 96.5768 820.815 88.2438C821.48 81.1708 822.163 75.2438 822.334 75.0738C822.82 74.5878 834.484 72.9097 844.382 71.9028C856.438 70.6758 892.227 71.4968 903.2 73.2518ZM692.985 83.8908L700.588 85.0578L701.217 99.2088C701.563 106.991 702.147 123.111 702.514 135.031L703.182 156.703L710.282 150.691C725.389 137.899 751.261 123.134 760.369 122.108C774.272 120.54 786.222 134.099 792.762 158.859C799.843 185.669 802.767 206.924 803.562 237.359C804.38 268.648 802.332 293.529 796.28 325.859C793.188 342.378 786.301 370.147 784.372 373.878C776.974 388.184 763.322 391.186 736.571 384.389C723.357 381.032 711.11 376.533 706.615 373.385C702.755 370.681 701.882 371.414 701.882 377.359V382.859H670.427H638.973L638.177 379.109C636.848 372.842 637.236 199.485 638.644 170.359C640.567 130.597 643.083 84.3898 643.341 84.0968C643.468 83.9528 646.904 83.4178 650.977 82.9078C660.021 81.7738 682.653 82.3038 692.985 83.8908ZM1056.28 96.8248C1061.72 97.9988 1067.51 99.6488 1069.14 100.491C1074.21 103.112 1080.91 110.688 1083.88 117.158C1086.56 122.977 1086.86 125.021 1088.78 150.359C1092.04 193.423 1093.2 226.719 1092.55 258.859C1091.9 290.811 1090.87 305.658 1087.78 327.359C1084.7 348.978 1081.62 358.59 1075.8 364.748C1071.43 369.375 1049.41 377.654 1029.88 382.015C1020.86 384.029 1016.71 384.356 1000.38 384.34C980.115 384.319 970.607 382.807 958.806 377.731C952.405 374.977 945.638 367.487 942.844 360.061C937.676 346.328 930.46 298.069 927.798 259.439C926.284 237.466 927.156 178.587 929.287 158.859C931.174 141.401 933.673 123.655 934.923 118.833C935.82 115.379 941.418 109.089 945.382 107.083C951.21 104.133 983.56 96.9098 999.882 94.9128C1013.06 93.3008 1044.96 94.3828 1056.28 96.8248ZM502.358 99.1088C502.67 100.896 504.274 112.709 505.922 125.359C512.334 174.562 519.016 222.444 519.717 224.211C520.884 227.15 540.404 164.986 549.342 129.864L553.543 113.359L557.962 113.104C568.349 112.503 605.716 109.741 611.187 109.169L617.152 108.546L616.694 249.637C616.312 366.959 616.005 391.006 614.868 392.376C612.767 394.908 602.831 399.589 594.884 401.791C588.665 403.515 572.834 406.394 559.132 408.293L554.882 408.883L554.881 388.121C554.88 376.702 554.581 345.342 554.215 318.431L553.551 269.504L539.702 317.931C532.086 344.567 525.393 368.047 524.83 370.109L523.805 373.859L518.093 373.846C512.763 373.834 499.751 371.556 490.267 368.974L486.151 367.854L482.943 347.607C473.811 289.969 463.83 229.011 463.092 226.359C462.616 224.647 461.979 259.146 461.61 306.735C461.254 352.592 460.8 390.274 460.602 390.472C460.054 391.021 420.499 383.68 419.572 382.857C418.347 381.77 414.467 313.399 411.768 245.359C410.187 205.482 410.2 130.01 411.791 112.359C412.485 104.659 413.128 98.2838 413.219 98.1908C413.31 98.0988 431.384 97.6098 453.383 97.1048C475.382 96.5998 495.274 96.1128 497.587 96.0228C501.592 95.8668 501.818 96.0128 502.358 99.1088ZM159.996 101.287C169.855 103.045 175.615 105.656 181.47 111.02C187.816 116.834 191.435 122.751 194.522 132.359C196.829 139.539 197.182 142.769 197.964 163.859C198.442 176.784 198.55 197.605 198.204 210.129C197.594 232.153 197.504 232.916 195.477 233.421C189.585 234.889 130.408 247.713 130.278 247.55C130.195 247.445 130.554 238.134 131.076 226.859C132.937 186.658 129.841 146.115 124.059 134.966C119.781 126.718 117.144 130.692 111.523 153.859C94.9398 222.206 93.7588 281.346 108.014 329.557C110.561 338.17 112.792 340.514 119.688 341.822C131.869 344.132 163.482 336.104 194.408 322.848C196.96 321.754 199.236 320.859 199.465 320.859C200.397 320.859 199.789 334.456 198.384 345.058C196.73 357.526 193.628 371.513 192.198 372.943C190.734 374.407 161.413 381.48 146.241 384.03C127.692 387.147 89.3958 387.428 75.8818 384.546C57.6038 380.649 46.8948 372.69 43.3638 360.378C41.4068 353.554 36.3307 317.369 34.2438 295.359C31.8788 270.43 31.8628 220.154 34.2118 199.113C38.7638 158.352 44.0918 141.544 56.9038 127.525C63.8678 119.905 70.0197 116.269 84.4567 111.237C114.2 100.87 139.197 97.5768 159.996 101.287ZM329.842 102.459C344.243 104.323 359.176 107.5 364.382 109.807C369.583 112.111 376.392 119.061 379.618 125.359C382.449 130.885 383.439 138.34 386.394 176.359C388.622 205.02 389.469 268.175 387.95 292.359C385.918 324.715 381.999 352.127 377.801 363.346C375.363 369.862 369.824 376.406 365.616 377.74C363.837 378.304 356.307 379.667 348.882 380.769C306.642 387.04 265.569 385.803 246.716 377.692C240.157 374.87 232.745 366.765 229.931 359.334C224.277 344.407 220.542 313.927 221.05 286.859C221.378 269.416 221.646 266.858 223.593 262.608C226.561 256.133 235.043 247.423 242.342 243.358C253.303 237.254 284.071 229.236 306.917 226.531L317.382 225.292L317.212 206.151C317.05 187.922 314.886 162.52 312.831 154.74C310.812 147.095 305.642 143.258 299.605 144.925C284.779 149.019 274.27 170.264 264.327 216.243L262.622 224.127L251.502 223.473C245.386 223.113 235.928 222.533 230.483 222.185L220.585 221.553L221.183 195.956C221.789 170.036 223.266 153.725 226.898 132.859C230.946 109.604 233.705 106.721 255.124 103.372C278.578 99.7038 305.979 99.3688 329.842 102.459ZM1008.19 111.702C1006.12 113.049 1004.74 117.207 1001.92 130.604C994.282 166.809 990.684 200.873 990.64 237.359C990.598 272.496 993.543 300.77 1000.45 331.575C1004.08 347.743 1004.95 350.046 1008.12 351.823C1011.22 353.558 1013.07 352.85 1016.06 348.782C1017.98 346.171 1021.26 322.596 1024.56 287.611C1026.76 264.37 1027.08 193.807 1025.08 175.359C1020.49 133.026 1013.85 108.015 1008.19 111.702ZM898.632 181.406L900.882 182.092V276.356V370.621L889.632 372.477C881.214 373.866 873.096 374.335 857.382 374.342C845.832 374.347 835.145 374.007 833.632 373.586L830.882 372.821V277.412V182.003L836.132 181.435C839.02 181.122 842.732 180.677 844.382 180.446C849.008 179.798 896.091 180.631 898.632 181.406ZM714.882 184.35C712.407 185.669 709.048 187.843 707.417 189.181L704.452 191.613L704.227 261.812L704.002 332.011L707.41 333.435C714.425 336.366 720.717 334.067 724.586 327.158C727.026 322.802 731.001 304.867 733.406 287.359C736.674 263.576 736.289 201.737 732.796 189.561C730.56 181.762 723.56 179.726 714.882 184.35ZM307.642 250.417C295.669 253.319 289.008 258.998 286.805 268.182C283.474 282.065 289.137 331.627 296.055 349.147C298.156 354.467 303.101 355.327 307.17 351.08C309.688 348.452 309.94 347.248 311.826 328.83C313.617 311.338 315.899 281.542 317.28 257.609C317.86 247.546 318.259 247.844 307.642 250.417ZM191.307 271.609C191.033 275.322 190.566 281.57 190.27 285.494L189.733 292.63L177.557 297.37C162.411 303.266 143.176 309.628 137.989 310.458L134.071 311.084L133.003 305.722C131.284 297.081 128.657 278.886 129.12 278.824C129.264 278.804 143.107 275.706 159.882 271.938C176.657 268.171 190.703 265.037 191.094 264.974C191.486 264.911 191.582 267.896 191.307 271.609Z" fill="black"/>
</g>
<defs>
<clipPath id="clip0_249_2635">
<rect width="1124" height="444" fill="white"/>
</clipPath>
</defs>
</svg>
