<svg width="174" height="122" viewBox="0 0 174 122" fill="none" xmlns="http://www.w3.org/2000/svg">
<g clip-path="url(#clip0_249_2806)">
<rect width="174" height="122" fill="white"/>
<path d="M22.3289 70.7535H52.7939" stroke="#19141E" stroke-width="5" stroke-linecap="round"/>
<path d="M115.324 112.301C121.116 112.301 125.856 107.562 125.856 101.769" stroke="white" stroke-width="5" stroke-linecap="round"/>
<path d="M160.476 70.7535H123.005" stroke="#19141E" stroke-width="5" stroke-linecap="round"/>
<path fill-rule="evenodd" clip-rule="evenodd" d="M23.7318 14.4988C18.2 14.1044 13.8342 9.49136 13.8342 3.85909V-0.935913H156.08V3.85909C156.08 9.49134 151.715 14.1044 146.183 14.4988V16.3981C146.183 22.8901 141.44 28.3279 135.248 29.4174V107.717C135.248 115.023 129.27 121 121.965 121H47.9497C40.6437 121 34.6667 115.023 34.6667 107.717V29.4174C28.4748 28.3278 23.7318 22.89 23.7318 16.3981V14.4988ZM1.15204 70.7536C1.15204 63.6266 6.92905 57.8486 14.056 57.8486C21.183 57.8486 26.961 63.6266 26.961 70.7536C26.961 77.8806 21.183 83.6576 14.056 83.6576C6.92905 83.6576 1.15204 77.8806 1.15204 70.7536ZM160.095 83.6576C167.222 83.6576 173 77.8806 173 70.7536C173 63.6266 167.222 57.8486 160.095 57.8486C152.968 57.8486 147.19 63.6266 147.19 70.7536C147.19 77.8806 152.968 83.6576 160.095 83.6576Z" fill="#FF7A00"/>
<path opacity="0.395926" fill-rule="evenodd" clip-rule="evenodd" d="M146.183 14.4988V17.7932C145.603 23.7673 140.235 29.6161 132.965 29.6161H36.9498C29.6798 29.6161 24.5365 24.2167 23.7318 18.2239V14.4988C18.1999 14.1044 13.8342 9.49137 13.8342 3.85909V-0.935907H156.08V3.85909C156.08 9.49134 151.715 14.1044 146.183 14.4988V14.4988ZM1.15204 70.7536C1.15204 63.6266 6.92904 57.8486 14.056 57.8486C21.183 57.8486 26.961 63.6266 26.961 70.7536C26.961 77.8806 21.183 83.6576 14.056 83.6576C6.92904 83.6576 1.15204 77.8806 1.15204 70.7536ZM173 70.7536C173 77.8806 167.222 83.6576 160.095 83.6576C152.968 83.6576 147.19 77.8806 147.19 70.7536C147.19 63.6266 152.968 57.8486 160.095 57.8486C167.222 57.8486 173 63.6266 173 70.7536Z" fill="black"/>
<path d="M145.34 14.1818H24.0311" stroke="#19141E" stroke-width="5"/>
<path d="M114.543 49.7081H34.6672" stroke="#19141E" stroke-width="7"/>
<path fill-rule="evenodd" clip-rule="evenodd" d="M93.6667 87.6789C99.2967 83.0449 100.104 74.7239 95.4697 69.0939C90.8357 63.4639 82.5147 62.6569 76.8847 67.2909C71.2547 71.9249 70.4477 80.2459 75.0817 85.8759C79.7157 91.5059 88.0367 92.3129 93.6667 87.6789" fill="white"/>
<path fill-rule="evenodd" clip-rule="evenodd" d="M86.6116 82.0265C89.1976 79.8975 89.5686 76.0755 87.4396 73.4885C85.3106 70.9025 81.4886 70.5315 78.9026 72.6605C76.3156 74.7895 75.9446 78.6115 78.0736 81.1985C80.2026 83.7845 84.0256 84.1555 86.6116 82.0265" fill="#19141E"/>
<path fill-rule="evenodd" clip-rule="evenodd" d="M58.9362 87.6789C64.5662 83.0449 65.3732 74.7239 60.7392 69.0939C56.1052 63.4639 47.7842 62.6569 42.1542 67.2909C36.5242 71.9249 35.7172 80.2459 40.3512 85.8759C44.9852 91.5059 53.3062 92.3129 58.9362 87.6789" fill="white"/>
<path fill-rule="evenodd" clip-rule="evenodd" d="M51.8812 82.0265C54.4672 79.8975 54.8382 76.0755 52.7092 73.4885C50.5802 70.9025 46.7582 70.5315 44.1722 72.6605C41.5852 74.7895 41.2142 78.6115 43.3432 81.1985C45.4722 83.7845 49.2952 84.1555 51.8812 82.0265" fill="#19141E"/>
</g>
<defs>
<clipPath id="clip0_249_2806">
<rect width="174" height="122" fill="white"/>
</clipPath>
</defs>
</svg>
