<svg width="423" height="1113" viewBox="0 0 423 1113" fill="none" xmlns="http://www.w3.org/2000/svg">
<g clip-path="url(#clip0_249_2883)">
<path d="M271.971 98.1281V28.2821" stroke="#19141E" stroke-width="7"/>
<path fill-rule="evenodd" clip-rule="evenodd" d="M278.256 127.774H249.376V84.7271H278.256C290.094 84.7271 299.779 94.4121 299.779 106.25C299.779 118.088 290.094 127.774 278.256 127.774Z" fill="#19141E"/>
<path fill-rule="evenodd" clip-rule="evenodd" d="M256.486 14.5777C257.485 6.91622 264.037 0.999878 271.971 0.999878C280.595 0.999878 287.587 7.99188 287.587 16.6169C287.587 25.2419 280.595 32.2339 271.971 32.2339C265.663 32.2339 260.228 28.4937 257.764 23.11L246.873 14.7773L232.053 26.1158L217.245 14.7781L202.432 26.1161L187.623 14.7781L172.811 26.116L164.635 19.8573C163.143 26.9272 156.869 32.2339 149.356 32.2339C140.731 32.2339 133.739 25.2419 133.739 16.6169C133.739 7.99188 140.731 0.999878 149.356 0.999878C156.387 0.999878 162.332 5.64642 164.289 12.0363L172.811 18.5599L187.623 7.22183L202.432 18.5599L217.245 7.22187L232.055 18.5602L246.873 7.22263L256.486 14.5777ZM266.33 159.584H153.92C144.97 159.584 137.715 152.329 137.715 143.379V69.1227C137.715 60.1727 144.97 52.9167 153.92 52.9167H266.33C275.28 52.9167 282.535 60.1727 282.535 69.1227V143.379C282.535 152.329 275.28 159.584 266.33 159.584ZM164.396 174.282H255.852C259.911 174.282 263.201 170.992 263.201 166.933C263.201 162.874 259.911 159.584 255.852 159.584H164.396C160.338 159.584 157.047 162.874 157.047 166.933C157.047 170.992 160.338 174.282 164.396 174.282Z" fill="#FF7A00"/>
<path opacity="0.404367" d="M187.623 14.7781L172.811 26.116L164.635 19.9173L164.25 12.0094L172.811 18.5599L187.623 7.2218L202.432 18.5598L217.245 7.22185L232.054 18.5601L246.873 7.2226L256.354 14.7773L257.931 23.1611L246.873 14.7773L232.053 26.1158L217.245 14.7781L202.432 26.1161L187.623 14.7781Z" fill="black"/>
<path opacity="0.395624" fill-rule="evenodd" clip-rule="evenodd" d="M255.852 174.282H164.396C160.338 174.282 157.047 170.992 157.047 166.933C157.047 162.874 160.338 159.584 164.396 159.584H255.852C259.911 159.584 263.201 162.874 263.201 166.933C263.201 170.992 259.911 174.282 255.852 174.282Z" fill="black"/>
<path fill-rule="evenodd" clip-rule="evenodd" d="M132.524 127.774H161.403V84.7271H132.524C120.686 84.7271 111 94.4121 111 106.25C111 118.088 120.686 127.774 132.524 127.774Z" fill="#19141E"/>
<path fill-rule="evenodd" clip-rule="evenodd" d="M271.971 106.25C271.971 122.71 261.311 136.054 248.162 136.054C235.013 136.054 224.354 122.71 224.354 106.25C224.354 89.79 235.013 76.446 248.162 76.446C261.311 76.446 271.971 89.79 271.971 106.25Z" fill="#19141E"/>
<path fill-rule="evenodd" clip-rule="evenodd" d="M236.974 136.054H248.162V76.4459H236.974V136.054Z" fill="#19141E"/>
<path fill-rule="evenodd" clip-rule="evenodd" d="M260.783 106.25C260.783 122.71 250.124 136.054 236.974 136.054C223.825 136.054 213.166 122.71 213.166 106.25C213.166 89.79 223.825 76.446 236.974 76.446C250.124 76.446 260.783 89.79 260.783 106.25Z" fill="white"/>
<path fill-rule="evenodd" clip-rule="evenodd" d="M249.162 104.25C249.162 110.044 245.41 114.742 240.781 114.742C236.152 114.742 232.4 110.044 232.4 104.25C232.4 98.4561 236.152 93.7581 240.781 93.7581C245.41 93.7581 249.162 98.4561 249.162 104.25Z" fill="#19141E"/>
<path d="M149.355 98.1281V31.5" stroke="#19141E" stroke-width="7"/>
<path d="M355.801 382.479L332.531 211.87" stroke="#19141E" stroke-width="27" stroke-linecap="round"/>
<path fill-rule="evenodd" clip-rule="evenodd" d="M139.122 361.423H284.232L306.36 337.602H116.994L139.122 361.423Z" fill="#19141E"/>
<path d="M52.8213 376.807L77.3523 206.374" stroke="#19141E" stroke-width="27" stroke-linecap="round"/>
<path fill-rule="evenodd" clip-rule="evenodd" d="M344.626 303.474V255.371C345.772 255.15 346.918 254.876 348.061 254.549C369.216 248.5 381.461 226.447 375.412 205.291C369.364 184.136 347.31 171.89 326.155 177.94C325.278 178.191 324.417 178.469 323.571 178.773C318.006 175.79 311.658 174.095 304.934 174.095H118.421C112.364 174.095 106.613 175.47 101.464 177.923C95.3848 174.167 88.2205 171.999 80.5499 171.999C58.5469 171.999 40.7099 189.836 40.7099 211.839C40.7099 233.232 57.5711 250.687 78.7289 251.638V303.474C78.7289 325.304 96.5899 343.166 118.421 343.166H304.934C326.765 343.166 344.626 325.304 344.626 303.474ZM394.198 600.711C394.566 591.38 391.464 582.715 386.042 575.963C402.071 566.967 412.939 549.768 412.873 530.178L412.511 422.274C412.415 393.534 388.821 370.099 360.081 370.195C331.342 370.292 307.906 393.885 308.002 422.625L308.364 530.529C308.423 548.073 317.238 563.641 330.634 573.085C324.581 579.176 320.585 587.338 319.903 596.42C319.8 597.791 319.772 599.15 319.815 600.492C320.011 606.573 327.799 608.86 331.268 603.861C335.224 598.162 340.669 594.718 346.548 594.95C357.829 595.395 366.441 609.215 365.787 625.821C365.787 625.832 365.786 625.843 365.786 625.854L365.785 625.873V625.874C365.784 625.892 365.783 625.91 365.782 625.927C365.576 630.876 370.778 634.191 375.104 631.779C386.061 625.671 393.668 614.168 394.198 600.711ZM42.5392 577.099C24.3063 570.026 10.7195 552.95 9.1745 532.24L1.1455 424.635C-0.9935 395.974 20.7075 370.775 49.3675 368.637C78.0275 366.498 103.227 388.198 105.366 416.859L113.394 524.464C114.736 542.458 106.683 559.088 93.4091 569.502C102.591 576.022 108.749 586.584 109.173 598.498C109.222 599.872 109.196 601.231 109.1 602.57C108.664 608.639 100.794 610.617 97.5238 605.486C93.7948 599.635 88.4898 595.979 82.6068 595.979C71.3178 595.979 62.1668 609.449 62.1668 626.069V626.175C62.1788 631.128 56.8498 634.236 52.6208 631.655C41.9138 625.12 34.7668 613.326 34.7668 599.859C34.7668 591.286 37.6665 583.39 42.5392 577.099ZM177.508 361.3V384.3H245.847V361.3H177.508Z" fill="#FF7A00"/>
<path opacity="0.394764" fill-rule="evenodd" clip-rule="evenodd" d="M109.173 598.499C109.222 599.872 109.196 601.232 109.1 602.57C108.664 608.639 100.794 610.617 97.5238 605.486C93.7948 599.635 88.4898 595.979 82.6068 595.979C71.3178 595.979 62.1668 609.449 62.1668 626.069V626.176C62.1788 631.129 56.8498 634.236 52.6208 631.655C41.9138 625.12 34.7668 613.327 34.7668 599.859C34.7668 578.93 52.0498 562.034 73.1328 562.667C92.5568 563.25 108.483 579.078 109.173 598.499ZM291.83 255.72C291.83 281.22 273.269 302.38 248.92 306.44C248.569 306.38 248.229 306.32 247.88 306.25C224.04 301.79 206 280.86 206 255.72C206 230.58 224.04 209.65 247.88 205.19C248.229 205.12 248.569 205.06 248.92 205C273.269 209.06 291.83 230.22 291.83 255.72ZM210.389 255.789C210.389 272.241 223.725 285.577 240.177 285.577C256.629 285.577 269.965 272.241 269.965 255.789C269.965 239.337 256.629 226 240.177 226C223.725 226 210.389 239.337 210.389 255.789ZM40.5 211.84C40.5 189.837 58.337 172 80.34 172C102.343 172 120.18 189.837 120.18 211.84C120.18 233.843 102.343 251.68 80.34 251.68C58.337 251.68 40.5 233.843 40.5 211.84ZM50.1123 204.455C50.1123 215.129 58.7653 223.782 69.4393 223.782C80.1133 223.782 88.7663 215.129 88.7663 204.455C88.7663 193.781 80.1133 185.128 69.4393 185.128C58.7653 185.128 50.1123 193.781 50.1123 204.455ZM323.5 178.879C324.345 178.575 325.207 178.296 326.083 178.046C347.238 171.996 369.292 184.242 375.34 205.397C381.389 226.553 369.144 248.606 347.989 254.655C346.846 254.982 345.7 255.255 344.555 255.477V213.893C344.555 198.787 336.002 185.581 323.5 178.879ZM386.041 575.768C391.463 582.521 394.564 591.185 394.197 600.517C393.667 613.974 386.06 625.477 375.103 631.585C370.777 633.997 365.575 630.682 365.781 625.733C365.783 625.698 365.784 625.663 365.786 625.627C366.44 609.021 357.828 595.201 346.547 594.756C340.668 594.524 335.223 597.968 331.267 603.667C327.798 608.666 320.01 606.379 319.814 600.298C319.771 598.956 319.799 597.597 319.902 596.226C320.584 587.143 324.579 578.981 330.633 572.89C317.237 563.446 308.421 547.878 308.362 530.334L308 422.43C307.904 393.69 331.34 370.097 360.079 370C388.819 369.904 412.413 393.339 412.509 422.079L412.871 529.983C412.937 549.573 402.069 566.772 386.041 575.768ZM178.709 296.975C178.709 291.325 183.29 286.744 188.94 286.744C194.591 286.744 199.171 291.325 199.171 296.975C199.171 302.625 194.591 307.206 188.94 307.206C183.29 307.206 178.709 302.625 178.709 296.975ZM149.139 296.975C149.139 291.325 153.72 286.744 159.369 286.744C165.02 286.744 169.601 291.325 169.601 296.975C169.601 302.625 165.02 307.206 159.369 307.206C153.72 307.206 149.139 302.625 149.139 296.975ZM14.3349 432.628C13.8979 426.994 18.1109 422.074 23.7449 421.637C29.3789 421.201 34.2999 425.414 34.7359 431.047C35.1729 436.681 30.9589 441.601 25.3259 442.038C19.6919 442.474 14.7719 438.261 14.3349 432.628ZM16.5224 460.851C16.0854 455.217 20.2984 450.297 25.9314 449.86C31.5654 449.424 36.4864 453.637 36.9224 459.27C37.3594 464.904 33.1464 469.824 27.5124 470.261C21.8784 470.697 16.9594 466.484 16.5224 460.851ZM18.7617 489.757C18.3247 484.124 22.5377 479.203 28.1717 478.766C33.8057 478.33 38.7257 482.543 39.1617 488.176C39.5987 493.81 35.3857 498.731 29.7527 499.167C24.1187 499.604 19.1987 495.391 18.7617 489.757ZM177 384V361H246V384H177Z" fill="black"/>
<path fill-rule="evenodd" clip-rule="evenodd" d="M248.68 306.506C273.029 302.446 291.59 281.286 291.59 255.786C291.59 230.286 273.029 209.126 248.68 205.066C251.44 204.606 254.279 204.366 257.17 204.366C285.569 204.366 308.59 227.386 308.59 255.786C308.59 284.186 285.569 307.206 257.17 307.206C254.279 307.206 251.44 306.966 248.68 306.506Z" fill="#19141E"/>
<path fill-rule="evenodd" clip-rule="evenodd" d="M421.82 1113.03H1C2.944 1060.94 33.611 1038.69 80.38 1037.46C111.252 950.176 178.895 1039.22 183.764 970.184C189.485 888.995 196.5 445.5 196.5 445.5H227C227 445.5 234.34 845.224 241.25 949.595C246.15 1023.52 296.07 954.961 361.64 999.764C394.739 1022.38 393.263 1077.09 393.263 1077.09C393.263 1077.09 421.82 1078.59 421.82 1113.03Z" fill="#B5B8BC"/>
<path fill-rule="evenodd" clip-rule="evenodd" d="M144.22 1113.49H41C45.49 1090.39 64.66 1073.54 87.24 1071.23C91.57 1070.8 96.02 1070.89 100.52 1071.57C103.11 1071.97 105.63 1072.54 108.07 1073.29C114.76 1075.34 120.82 1078.66 126 1082.94C135.35 1090.63 141.87 1101.43 144.22 1113.49Z" fill="#D7DADD"/>
<path fill-rule="evenodd" clip-rule="evenodd" d="M373.63 1113.49H317.77C320.06 1102.86 327.35 1094.25 336.94 1090.98C339.2 1090.21 341.59 1089.73 344.08 1089.6C345.51 1089.52 346.93 1089.56 348.31 1089.71C360.48 1091 370.65 1100.62 373.63 1113.49Z" fill="#D7DADD"/>
<path fill-rule="evenodd" clip-rule="evenodd" d="M282.81 1113.49H123.19C122.53 1106.91 122.68 1100.15 123.72 1093.32C124.26 1089.77 125.03 1086.3 126 1082.94C137.04 1044.88 174.85 1019.96 215.09 1026.08C224.6 1027.53 233.46 1030.59 241.44 1034.95C269.11 1050.03 286.18 1080.67 282.81 1113.49Z" fill="#D7DADD"/>
<path fill-rule="evenodd" clip-rule="evenodd" d="M156.072 962.127C154.763 970.73 146.728 976.642 138.126 975.333C129.523 974.024 123.611 965.989 124.92 957.387C126.229 948.784 134.263 942.872 142.866 944.181C151.468 945.49 157.381 953.524 156.072 962.127Z" fill="#D7DADD"/>
<path fill-rule="evenodd" clip-rule="evenodd" d="M270.463 965.115C269.923 968.665 266.607 971.105 263.057 970.565C259.506 970.024 257.066 966.709 257.607 963.158C258.147 959.608 261.463 957.168 265.013 957.708C268.563 958.249 271.003 961.564 270.463 965.115Z" fill="#D7DADD"/>
<path fill-rule="evenodd" clip-rule="evenodd" d="M415.472 1001.22C414.225 1009.41 406.573 1015.04 398.38 1013.8C390.187 1012.55 384.556 1004.9 385.803 996.705C387.05 988.512 394.702 982.881 402.895 984.128C411.088 985.374 416.719 993.027 415.472 1001.22Z" fill="#D7DADD"/>
<path fill-rule="evenodd" clip-rule="evenodd" d="M164 404H259.282C264.805 404 269.282 399.522 269.282 394C269.282 388.477 264.805 384 259.282 384H164C158.477 384 154 388.477 154 394C154 399.522 158.477 404 164 404ZM185.18 446.158H238.103L258.103 404H165.18L185.18 446.158Z" fill="#FF7A00"/>
<path opacity="0.402158" fill-rule="evenodd" clip-rule="evenodd" d="M237.934 446.158H185.011L165.011 404H257.934L237.934 446.158Z" fill="black"/>
</g>
<defs>
<clipPath id="clip0_249_2883">
<rect width="423" height="1113" fill="white"/>
</clipPath>
</defs>
</svg>
