<svg width="184" height="527" viewBox="0 0 184 527" fill="none" xmlns="http://www.w3.org/2000/svg">
<g clip-path="url(#clip0_249_2928)">
<rect width="184" height="527" fill="white"/>
<path d="M109.272 13.4229C109.272 13.4229 91.81 24.9719 89.889 44.9529" stroke="#19141E" stroke-width="5" stroke-linecap="round"/>
<path fill-rule="evenodd" clip-rule="evenodd" d="M110.924 22.077C105.104 22.077 100.386 17.358 100.386 11.538C100.386 5.718 105.104 1 110.924 1C116.744 1 121.463 5.718 121.463 11.538C121.463 17.358 116.744 22.077 110.924 22.077ZM161.125 97.4496H108.247V139.326H77.8879V97.4496H27.7885C16.3075 97.4496 6.91351 88.0556 6.91351 76.5746V62.5016C6.91351 51.0206 16.3075 41.6266 27.7885 41.6266H161.125C172.606 41.6266 182 51.0206 182 62.5016V76.5746C182 88.0556 172.606 97.4496 161.125 97.4496Z" fill="#FF7A00"/>
<path opacity="0.399042" fill-rule="evenodd" clip-rule="evenodd" d="M108.247 139.326H77.8881V97.326H108.247V139.326Z" fill="black"/>
<path opacity="0.400367" fill-rule="evenodd" clip-rule="evenodd" d="M108.247 125.742L77.8876 115.742V97.1576H108.247V125.742Z" fill="black"/>
<path fill-rule="evenodd" clip-rule="evenodd" d="M161.125 97.4496V97.4496C172.606 97.4496 182 88.0556 182 76.5746V62.5016C182 51.0206 172.606 41.6266 161.125 41.6266C149.644 41.6266 140.25 51.0206 140.25 62.5016V76.5746C140.25 88.0556 149.644 97.4496 161.125 97.4496" fill="#19141E"/>
<path fill-rule="evenodd" clip-rule="evenodd" d="M128.385 69.5385C128.385 78.3775 121.219 85.5435 112.38 85.5435C103.54 85.5435 96.3738 78.3775 96.3738 69.5385C96.3738 60.6985 103.54 53.5325 112.38 53.5325C121.219 53.5325 128.385 60.6985 128.385 69.5385" fill="white"/>
<path fill-rule="evenodd" clip-rule="evenodd" d="M117.659 67.2895C117.659 71.3505 114.367 74.6425 110.306 74.6425C106.245 74.6425 102.953 71.3505 102.953 67.2895C102.953 63.2285 106.245 59.9365 110.306 59.9365C114.367 59.9365 117.659 63.2285 117.659 67.2895" fill="#19141E"/>
<path fill-rule="evenodd" clip-rule="evenodd" d="M50.335 69.5385C50.335 78.3775 43.169 85.5435 34.329 85.5435C25.489 85.5435 18.323 78.3775 18.323 69.5385C18.323 60.6985 25.489 53.5325 34.329 53.5325C43.169 53.5325 50.335 60.6985 50.335 69.5385" fill="white"/>
<path fill-rule="evenodd" clip-rule="evenodd" d="M39.6094 67.2895C39.6094 71.3505 36.3174 74.6425 32.2564 74.6425C28.1954 74.6425 24.9034 71.3505 24.9034 67.2895C24.9034 63.2285 28.1954 59.9365 32.2564 59.9365C36.3174 59.9365 39.6094 63.2285 39.6094 67.2895" fill="#19141E"/>
<path fill-rule="evenodd" clip-rule="evenodd" d="M77.0122 58.5677L62.6962 69.4307L77.0122 80.5087" fill="#19141E"/>
<path fill-rule="evenodd" clip-rule="evenodd" d="M37.5921 210.553H53.518V154.204C53.518 145.807 60.325 139 68.722 139H117.797C126.193 139 133 145.807 133 154.204V209H147C151.971 209 156 213.029 156 218V400.796C156 405.767 151.971 409.796 147 409.796H118.537C113.566 409.796 109.537 405.767 109.537 400.796C109.537 395.825 113.566 391.796 118.537 391.796H138V352.422C132.666 344.275 125.96 339.423 118.677 339.423C101.291 339.423 87.1977 367.065 87.1977 401.164C87.1977 435.263 101.291 462.906 118.677 462.906C134.576 462.906 147.723 439.784 149.853 409.748C153.497 408.597 156.139 405.189 156.139 401.164V298.595C172.404 321.49 183 358.9 183 401.164C183 470.843 154.201 527.329 118.676 527.329C117.822 527.329 116.971 527.296 116.125 527.232H68.6914C67.8452 527.296 66.9947 527.329 66.1404 527.329C30.6144 527.329 1.81641 470.843 1.81641 401.164C1.81641 358.973 12.3748 321.619 28.5921 298.714V219.553C28.5921 214.583 32.6215 210.553 37.5921 210.553ZM53.518 239.209V228.553H46.5921V280.931C52.7567 277.079 59.3247 275 66.1404 275C66.2073 275 66.2741 275 66.3409 275.001H118.475C118.542 275 118.609 275 118.676 275C125.409 275 131.9 277.029 138 280.792V227H133V239.209C133 247.606 126.193 254.413 117.797 254.413H68.722C60.325 254.413 53.518 247.606 53.518 239.209Z" fill="#FF7A00"/>
<path fill-rule="evenodd" clip-rule="evenodd" d="M149.694 409.386C148.843 409.652 147.938 409.796 147 409.796H118.537C113.566 409.796 109.537 405.767 109.537 400.796C109.537 395.825 113.566 391.796 118.537 391.796H138V352.237C132.641 343.947 125.876 339 118.522 339C101.136 339 87.043 366.642 87.043 400.741C87.043 434.84 101.136 462.483 118.522 462.483C134.41 462.483 147.55 439.392 149.694 409.386L149.694 409.386Z" fill="#19141E"/>
<path fill-rule="evenodd" clip-rule="evenodd" d="M133.265 197.15H53.7829V169.928H133.265V197.15Z" fill="#19141E"/>
<path opacity="0.395764" fill-rule="evenodd" clip-rule="evenodd" d="M45.9898 281.011C46.2589 280.83 46.5321 280.648 46.8093 280.466V229H54V211H37.8093C32.8387 211 28.8093 215.029 28.8093 220C28.666 254.542 28.5936 280.514 28.5921 297.916C29.0873 297.265 29.5874 296.627 30.0922 296.003C30.4738 295.479 30.8465 294.962 31.1893 294.592C31.2783 294.496 31.3646 294.402 31.4486 294.31C13.3605 316.639 1.34092 356.148 1.34092 401.164C1.34092 470.843 30.1389 527.329 65.6649 527.329C66.5192 527.329 67.3697 527.296 68.2159 527.232H115.65C81.307 524.605 53.8765 469.167 53.8765 401.164C53.8765 331.616 82.5672 275.213 118 275L65.8654 275.001C65.7986 275 65.7318 275 65.6649 275C58.8025 275 52.1911 277.108 45.9898 281.011V281.011ZM35.4655 289.74C34.9837 290.244 34.5054 290.759 34.031 291.285C34.4538 290.794 34.906 290.296 35.4655 289.74L35.4655 289.74ZM138 391.796H118.537C113.566 391.796 109.537 395.825 109.537 400.796C109.537 405.767 113.566 409.796 118.537 409.796H147C151.971 409.796 156 405.767 156 400.796V218C156 213.029 151.971 209 147 209H118.537C113.566 209 109.537 213.029 109.537 218C109.537 222.971 113.566 227 118.537 227H138V391.796Z" fill="black"/>
</g>
<defs>
<clipPath id="clip0_249_2928">
<rect width="184" height="527" fill="white"/>
</clipPath>
</defs>
</svg>
